<svg width="335" height="45" viewBox="0 0 335 45" fill="none" xmlns="http://www.w3.org/2000/svg">
<rect width="335" height="44.5991" rx="22.2995" fill="#5865F2"/>
<path d="M48.7204 9.66351C48.7094 9.64202 48.6912 9.62517 48.669 9.616C46.106 8.42875 43.4013 7.58215 40.6225 7.09738C40.5973 7.09264 40.5712 7.09606 40.548 7.10715C40.5248 7.11824 40.5056 7.13644 40.4933 7.15915C40.125 7.83404 39.7906 8.52726 39.4915 9.23616C36.4962 8.7771 33.4494 8.7771 30.4541 9.23616C30.153 8.52546 29.8133 7.83206 29.4366 7.15915C29.4237 7.13693 29.4044 7.11915 29.3813 7.10814C29.3583 7.09712 29.3324 7.09337 29.3072 7.09738C26.5282 7.58113 23.8233 8.4278 21.2606 9.61607C21.2387 9.62546 21.2202 9.64149 21.2076 9.66195C16.0828 17.3888 14.6789 24.9258 15.3676 32.3693C15.3695 32.3876 15.3751 32.4052 15.3839 32.4213C15.3927 32.4373 15.4047 32.4514 15.419 32.4627C18.4032 34.6935 21.741 36.3962 25.29 37.4983C25.315 37.5059 25.3417 37.5056 25.3665 37.4974C25.3913 37.4892 25.413 37.4735 25.4287 37.4525C26.191 36.4053 26.8664 35.2965 27.4481 34.1372C27.4561 34.1213 27.4607 34.1039 27.4615 34.0861C27.4623 34.0683 27.4594 34.0505 27.4529 34.0339C27.4465 34.0173 27.4366 34.0023 27.424 33.9898C27.4113 33.9773 27.3962 33.9677 27.3796 33.9616C26.3145 33.5501 25.2834 33.0542 24.2959 32.4783C24.278 32.4676 24.2629 32.4527 24.252 32.4348C24.2412 32.4169 24.2349 32.3965 24.2336 32.3755C24.2324 32.3546 24.2363 32.3336 24.245 32.3145C24.2537 32.2954 24.2669 32.2788 24.2835 32.2661C24.4913 32.1094 24.6954 31.9479 24.8959 31.7817C24.9134 31.7671 24.9347 31.7577 24.9573 31.7546C24.9799 31.7515 25.0028 31.7549 25.0236 31.7643C31.4931 34.7452 38.4971 34.7452 44.89 31.7643C44.9109 31.7543 44.9341 31.7505 44.957 31.7533C44.9799 31.7561 45.0015 31.7654 45.0194 31.7801C45.22 31.9472 45.4247 32.1092 45.6333 32.2661C45.65 32.2787 45.6633 32.2952 45.6721 32.3142C45.681 32.3332 45.685 32.3542 45.684 32.3751C45.6829 32.3961 45.6767 32.4165 45.666 32.4345C45.6552 32.4525 45.6403 32.4675 45.6224 32.4783C44.6372 33.059 43.6051 33.5547 42.5372 33.96C42.5207 33.9664 42.5056 33.9762 42.493 33.9889C42.4805 34.0015 42.4707 34.0167 42.4644 34.0334C42.458 34.0502 42.4552 34.0681 42.4562 34.086C42.4572 34.1038 42.4619 34.1213 42.47 34.1372C43.0615 35.29 43.7359 36.3975 44.4879 37.4506C44.5031 37.4722 44.5247 37.4884 44.5496 37.497C44.5745 37.5055 44.6014 37.5059 44.6266 37.4981C48.182 36.3998 51.5256 34.6968 54.5135 32.4627C54.5281 32.4519 54.5402 32.4382 54.549 32.4224C54.5579 32.4066 54.5633 32.389 54.5649 32.3709C55.3894 23.7653 53.1846 16.2902 48.7204 9.66351ZM28.4143 27.837C26.4665 27.837 24.8616 26.0323 24.8616 23.8161C24.8616 21.5998 26.4354 19.795 28.4143 19.795C30.4086 19.795 31.998 21.6154 31.9669 23.8159C31.9669 26.0323 30.3931 27.837 28.4143 27.837ZM41.5496 27.837C39.6019 27.837 37.997 26.0323 37.997 23.8161C37.997 21.5998 39.5708 19.795 41.5496 19.795C43.5442 19.795 45.1335 21.6154 45.1023 23.8159C45.1023 26.0323 43.5442 27.837 41.5496 27.837Z" fill="white"/>
<path d="M68.9411 16.436V25.256C68.9411 26.48 68.5871 27.434 67.8791 28.118C67.1711 28.79 66.2231 29.126 65.0351 29.126C63.8351 29.126 62.8631 28.778 62.1191 28.082C61.3871 27.386 61.0211 26.414 61.0211 25.166H63.5411C63.5531 25.706 63.6791 26.126 63.9191 26.426C64.1711 26.726 64.5311 26.876 64.9991 26.876C65.4551 26.876 65.8031 26.732 66.0431 26.444C66.2831 26.156 66.4031 25.76 66.4031 25.256V16.436H68.9411ZM76.3087 29.162C75.3487 29.162 74.4847 28.952 73.7167 28.532C72.9487 28.1 72.3427 27.494 71.8987 26.714C71.4667 25.934 71.2507 25.034 71.2507 24.014C71.2507 22.994 71.4727 22.094 71.9167 21.314C72.3727 20.534 72.9907 19.934 73.7707 19.514C74.5507 19.082 75.4207 18.866 76.3807 18.866C77.3407 18.866 78.2107 19.082 78.9907 19.514C79.7707 19.934 80.3827 20.534 80.8267 21.314C81.2827 22.094 81.5107 22.994 81.5107 24.014C81.5107 25.034 81.2767 25.934 80.8087 26.714C80.3527 27.494 79.7287 28.1 78.9367 28.532C78.1567 28.952 77.2807 29.162 76.3087 29.162ZM76.3087 26.966C76.7647 26.966 77.1907 26.858 77.5867 26.642C77.9947 26.414 78.3187 26.078 78.5587 25.634C78.7987 25.19 78.9187 24.65 78.9187 24.014C78.9187 23.066 78.6667 22.34 78.1627 21.836C77.6707 21.32 77.0647 21.062 76.3447 21.062C75.6247 21.062 75.0187 21.32 74.5267 21.836C74.0467 22.34 73.8067 23.066 73.8067 24.014C73.8067 24.962 74.0407 25.694 74.5087 26.21C74.9887 26.714 75.5887 26.966 76.3087 26.966ZM84.6372 17.84C84.1932 17.84 83.8212 17.702 83.5212 17.426C83.2332 17.138 83.0892 16.784 83.0892 16.364C83.0892 15.944 83.2332 15.596 83.5212 15.32C83.8212 15.032 84.1932 14.888 84.6372 14.888C85.0812 14.888 85.4472 15.032 85.7352 15.32C86.0352 15.596 86.1852 15.944 86.1852 16.364C86.1852 16.784 86.0352 17.138 85.7352 17.426C85.4472 17.702 85.0812 17.84 84.6372 17.84ZM85.8792 19.028V29H83.3592V19.028H85.8792ZM93.895 18.884C95.083 18.884 96.043 19.262 96.775 20.018C97.507 20.762 97.873 21.806 97.873 23.15V29H95.353V23.492C95.353 22.7 95.155 22.094 94.759 21.674C94.363 21.242 93.823 21.026 93.139 21.026C92.443 21.026 91.891 21.242 91.483 21.674C91.087 22.094 90.889 22.7 90.889 23.492V29H88.369V19.028H90.889V20.27C91.225 19.838 91.651 19.502 92.167 19.262C92.695 19.01 93.271 18.884 93.895 18.884ZM112.262 26.606H107.258L106.43 29H103.784L108.302 16.418H111.236L115.754 29H113.09L112.262 26.606ZM111.578 24.59L109.76 19.334L107.942 24.59H111.578ZM122.015 21.098H120.269V29H117.713V21.098H116.579V19.028H117.713V18.524C117.713 17.3 118.061 16.4 118.757 15.824C119.453 15.248 120.503 14.978 121.907 15.014V17.138C121.295 17.126 120.869 17.228 120.629 17.444C120.389 17.66 120.269 18.05 120.269 18.614V19.028H122.015V21.098ZM129.174 18.884C130.362 18.884 131.322 19.262 132.054 20.018C132.786 20.762 133.152 21.806 133.152 23.15V29H130.632V23.492C130.632 22.7 130.434 22.094 130.038 21.674C129.642 21.242 129.102 21.026 128.418 21.026C127.722 21.026 127.17 21.242 126.762 21.674C126.366 22.094 126.168 22.7 126.168 23.492V29H123.648V19.028H126.168V20.27C126.504 19.838 126.93 19.502 127.446 19.262C127.974 19.01 128.55 18.884 129.174 18.884ZM134.901 23.978C134.901 22.97 135.099 22.076 135.495 21.296C135.903 20.516 136.449 19.916 137.133 19.496C137.829 19.076 138.603 18.866 139.455 18.866C140.199 18.866 140.847 19.016 141.399 19.316C141.963 19.616 142.413 19.994 142.749 20.45V19.028H145.287V29H142.749V27.542C142.425 28.01 141.975 28.4 141.399 28.712C140.835 29.012 140.181 29.162 139.437 29.162C138.597 29.162 137.829 28.946 137.133 28.514C136.449 28.082 135.903 27.476 135.495 26.696C135.099 25.904 134.901 24.998 134.901 23.978ZM142.749 24.014C142.749 23.402 142.629 22.88 142.389 22.448C142.149 22.004 141.825 21.668 141.417 21.44C141.009 21.2 140.571 21.08 140.103 21.08C139.635 21.08 139.203 21.194 138.807 21.422C138.411 21.65 138.087 21.986 137.835 22.43C137.595 22.862 137.475 23.378 137.475 23.978C137.475 24.578 137.595 25.106 137.835 25.562C138.087 26.006 138.411 26.348 138.807 26.588C139.215 26.828 139.647 26.948 140.103 26.948C140.571 26.948 141.009 26.834 141.417 26.606C141.825 26.366 142.149 26.03 142.389 25.598C142.629 25.154 142.749 24.626 142.749 24.014ZM153.274 18.884C154.462 18.884 155.422 19.262 156.154 20.018C156.886 20.762 157.252 21.806 157.252 23.15V29H154.732V23.492C154.732 22.7 154.534 22.094 154.138 21.674C153.742 21.242 153.202 21.026 152.518 21.026C151.822 21.026 151.27 21.242 150.862 21.674C150.466 22.094 150.268 22.7 150.268 23.492V29H147.748V19.028H150.268V20.27C150.604 19.838 151.03 19.502 151.546 19.262C152.074 19.01 152.65 18.884 153.274 18.884ZM161.232 14.636L161.016 18.452H159.306L159.072 14.636H161.232ZM166.98 29.162C166.164 29.162 165.432 29.018 164.784 28.73C164.136 28.43 163.62 28.028 163.236 27.524C162.864 27.02 162.66 26.462 162.624 25.85H165.162C165.21 26.234 165.396 26.552 165.72 26.804C166.056 27.056 166.47 27.182 166.962 27.182C167.442 27.182 167.814 27.086 168.078 26.894C168.354 26.702 168.492 26.456 168.492 26.156C168.492 25.832 168.324 25.592 167.988 25.436C167.664 25.268 167.142 25.088 166.422 24.896C165.678 24.716 165.066 24.53 164.586 24.338C164.118 24.146 163.71 23.852 163.362 23.456C163.026 23.06 162.858 22.526 162.858 21.854C162.858 21.302 163.014 20.798 163.326 20.342C163.65 19.886 164.106 19.526 164.694 19.262C165.294 18.998 165.996 18.866 166.8 18.866C167.988 18.866 168.936 19.166 169.644 19.766C170.352 20.354 170.742 21.152 170.814 22.16H168.402C168.366 21.764 168.198 21.452 167.898 21.224C167.61 20.984 167.22 20.864 166.728 20.864C166.272 20.864 165.918 20.948 165.666 21.116C165.426 21.284 165.306 21.518 165.306 21.818C165.306 22.154 165.474 22.412 165.81 22.592C166.146 22.76 166.668 22.934 167.376 23.114C168.096 23.294 168.69 23.48 169.158 23.672C169.626 23.864 170.028 24.164 170.364 24.572C170.712 24.968 170.892 25.496 170.904 26.156C170.904 26.732 170.742 27.248 170.418 27.704C170.106 28.16 169.65 28.52 169.05 28.784C168.462 29.036 167.772 29.162 166.98 29.162ZM181.654 16.436C182.974 16.436 184.132 16.694 185.128 17.21C186.136 17.726 186.91 18.464 187.45 19.424C188.002 20.372 188.278 21.476 188.278 22.736C188.278 23.996 188.002 25.1 187.45 26.048C186.91 26.984 186.136 27.71 185.128 28.226C184.132 28.742 182.974 29 181.654 29H177.262V16.436H181.654ZM181.564 26.858C182.884 26.858 183.904 26.498 184.624 25.778C185.344 25.058 185.704 24.044 185.704 22.736C185.704 21.428 185.344 20.408 184.624 19.676C183.904 18.932 182.884 18.56 181.564 18.56H179.782V26.858H181.564ZM199.434 23.798C199.434 24.158 199.41 24.482 199.362 24.77H192.072C192.132 25.49 192.384 26.054 192.828 26.462C193.272 26.87 193.818 27.074 194.466 27.074C195.402 27.074 196.068 26.672 196.464 25.868H199.182C198.894 26.828 198.342 27.62 197.526 28.244C196.71 28.856 195.708 29.162 194.52 29.162C193.56 29.162 192.696 28.952 191.928 28.532C191.172 28.1 190.578 27.494 190.146 26.714C189.726 25.934 189.516 25.034 189.516 24.014C189.516 22.982 189.726 22.076 190.146 21.296C190.566 20.516 191.154 19.916 191.91 19.496C192.666 19.076 193.536 18.866 194.52 18.866C195.468 18.866 196.314 19.07 197.058 19.478C197.814 19.886 198.396 20.468 198.804 21.224C199.224 21.968 199.434 22.826 199.434 23.798ZM196.824 23.078C196.812 22.43 196.578 21.914 196.122 21.53C195.666 21.134 195.108 20.936 194.448 20.936C193.824 20.936 193.296 21.128 192.864 21.512C192.444 21.884 192.186 22.406 192.09 23.078H196.824ZM205.431 26.678L207.951 19.028H210.633L206.943 29H203.883L200.211 19.028H202.911L205.431 26.678ZM215.726 22.7C215.726 21.464 216.002 20.36 216.554 19.388C217.118 18.404 217.88 17.642 218.84 17.102C219.812 16.55 220.898 16.274 222.098 16.274C223.502 16.274 224.732 16.634 225.788 17.354C226.844 18.074 227.582 19.07 228.002 20.342H225.104C224.816 19.742 224.408 19.292 223.88 18.992C223.364 18.692 222.764 18.542 222.08 18.542C221.348 18.542 220.694 18.716 220.118 19.064C219.554 19.4 219.11 19.88 218.786 20.504C218.474 21.128 218.318 21.86 218.318 22.7C218.318 23.528 218.474 24.26 218.786 24.896C219.11 25.52 219.554 26.006 220.118 26.354C220.694 26.69 221.348 26.858 222.08 26.858C222.764 26.858 223.364 26.708 223.88 26.408C224.408 26.096 224.816 25.64 225.104 25.04H228.002C227.582 26.324 226.844 27.326 225.788 28.046C224.744 28.754 223.514 29.108 222.098 29.108C220.898 29.108 219.812 28.838 218.84 28.298C217.88 27.746 217.118 26.984 216.554 26.012C216.002 25.04 215.726 23.936 215.726 22.7ZM234.582 29.162C233.622 29.162 232.758 28.952 231.99 28.532C231.222 28.1 230.616 27.494 230.172 26.714C229.74 25.934 229.524 25.034 229.524 24.014C229.524 22.994 229.746 22.094 230.19 21.314C230.646 20.534 231.264 19.934 232.044 19.514C232.824 19.082 233.694 18.866 234.654 18.866C235.614 18.866 236.484 19.082 237.264 19.514C238.044 19.934 238.656 20.534 239.1 21.314C239.556 22.094 239.784 22.994 239.784 24.014C239.784 25.034 239.55 25.934 239.082 26.714C238.626 27.494 238.002 28.1 237.21 28.532C236.43 28.952 235.554 29.162 234.582 29.162ZM234.582 26.966C235.038 26.966 235.464 26.858 235.86 26.642C236.268 26.414 236.592 26.078 236.832 25.634C237.072 25.19 237.192 24.65 237.192 24.014C237.192 23.066 236.94 22.34 236.436 21.836C235.944 21.32 235.338 21.062 234.618 21.062C233.898 21.062 233.292 21.32 232.8 21.836C232.32 22.34 232.08 23.066 232.08 24.014C232.08 24.962 232.314 25.694 232.782 26.21C233.262 26.714 233.862 26.966 234.582 26.966ZM254.017 18.884C255.241 18.884 256.225 19.262 256.969 20.018C257.725 20.762 258.103 21.806 258.103 23.15V29H255.583V23.492C255.583 22.712 255.385 22.118 254.989 21.71C254.593 21.29 254.053 21.08 253.369 21.08C252.685 21.08 252.139 21.29 251.731 21.71C251.335 22.118 251.137 22.712 251.137 23.492V29H248.617V23.492C248.617 22.712 248.419 22.118 248.023 21.71C247.627 21.29 247.087 21.08 246.403 21.08C245.707 21.08 245.155 21.29 244.747 21.71C244.351 22.118 244.153 22.712 244.153 23.492V29H241.633V19.028H244.153V20.234C244.477 19.814 244.891 19.484 245.395 19.244C245.911 19.004 246.475 18.884 247.087 18.884C247.867 18.884 248.563 19.052 249.175 19.388C249.787 19.712 250.261 20.18 250.597 20.792C250.921 20.216 251.389 19.754 252.001 19.406C252.625 19.058 253.297 18.884 254.017 18.884ZM272.878 18.884C274.102 18.884 275.086 19.262 275.83 20.018C276.586 20.762 276.964 21.806 276.964 23.15V29H274.444V23.492C274.444 22.712 274.246 22.118 273.85 21.71C273.454 21.29 272.914 21.08 272.23 21.08C271.546 21.08 271 21.29 270.592 21.71C270.196 22.118 269.998 22.712 269.998 23.492V29H267.478V23.492C267.478 22.712 267.28 22.118 266.884 21.71C266.488 21.29 265.948 21.08 265.264 21.08C264.568 21.08 264.016 21.29 263.608 21.71C263.212 22.118 263.014 22.712 263.014 23.492V29H260.494V19.028H263.014V20.234C263.338 19.814 263.752 19.484 264.256 19.244C264.772 19.004 265.336 18.884 265.948 18.884C266.728 18.884 267.424 19.052 268.036 19.388C268.648 19.712 269.122 20.18 269.458 20.792C269.782 20.216 270.25 19.754 270.862 19.406C271.486 19.058 272.158 18.884 272.878 18.884ZM288.769 19.028V29H286.231V27.74C285.907 28.172 285.481 28.514 284.953 28.766C284.437 29.006 283.873 29.126 283.261 29.126C282.481 29.126 281.791 28.964 281.191 28.64C280.591 28.304 280.117 27.818 279.769 27.182C279.433 26.534 279.265 25.766 279.265 24.878V19.028H281.785V24.518C281.785 25.31 281.983 25.922 282.379 26.354C282.775 26.774 283.315 26.984 283.999 26.984C284.695 26.984 285.241 26.774 285.637 26.354C286.033 25.922 286.231 25.31 286.231 24.518V19.028H288.769ZM296.782 18.884C297.97 18.884 298.93 19.262 299.662 20.018C300.394 20.762 300.76 21.806 300.76 23.15V29H298.24V23.492C298.24 22.7 298.042 22.094 297.646 21.674C297.25 21.242 296.71 21.026 296.026 21.026C295.33 21.026 294.778 21.242 294.37 21.674C293.974 22.094 293.776 22.7 293.776 23.492V29H291.256V19.028H293.776V20.27C294.112 19.838 294.538 19.502 295.054 19.262C295.582 19.01 296.158 18.884 296.782 18.884ZM304.434 17.84C303.99 17.84 303.618 17.702 303.318 17.426C303.03 17.138 302.886 16.784 302.886 16.364C302.886 15.944 303.03 15.596 303.318 15.32C303.618 15.032 303.99 14.888 304.434 14.888C304.878 14.888 305.244 15.032 305.532 15.32C305.832 15.596 305.982 15.944 305.982 16.364C305.982 16.784 305.832 17.138 305.532 17.426C305.244 17.702 304.878 17.84 304.434 17.84ZM305.676 19.028V29H303.156V19.028H305.676ZM311.1 21.098V25.922C311.1 26.258 311.178 26.504 311.334 26.66C311.502 26.804 311.778 26.876 312.162 26.876H313.332V29H311.748C309.624 29 308.562 27.968 308.562 25.904V21.098H307.374V19.028H308.562V16.562H311.1V19.028H313.332V21.098H311.1ZM324.684 19.028L318.51 33.716H315.828L317.988 28.748L313.992 19.028H316.818L319.392 25.994L322.002 19.028H324.684Z" fill="white"/>
</svg>
